<?xml version="1.0" encoding="UTF-8" standalone="no"?><!DOCTYPE svg PUBLIC "-//W3C//DTD SVG 1.1//EN" "http://www.w3.org/Graphics/SVG/1.1/DTD/svg11.dtd"><svg width="100%" height="100%" viewBox="0 0 959 955" version="1.1" xmlns="http://www.w3.org/2000/svg" xmlns:xlink="http://www.w3.org/1999/xlink" xml:space="preserve" xmlns:serif="http://www.serif.com/" style="fill-rule:evenodd;clip-rule:evenodd;stroke-linejoin:round;stroke-miterlimit:2;"><g id="Plan-de-travail1" serif:id="Plan de travail1"><g><path d="M60.625,475.042c10.208,-57.167 30.455,-107.868 60.74,-152.105c30.284,-44.236 67.204,-78.263 110.76,-102.083c43.556,-23.819 89.493,-35.729 137.813,-35.729c42.194,0 77.753,8.507 106.677,25.521c28.923,17.014 50.191,38.451 63.802,64.312l14.291,-80.646l143.938,0l-100.042,565.542l-143.937,0l15.312,-82.687c-22.458,26.541 -51.552,48.489 -87.281,65.843c-35.729,17.355 -74.691,26.032 -116.885,26.032c-41.514,-0 -78.264,-9.358 -110.25,-28.073c-31.987,-18.716 -56.827,-45.257 -74.521,-79.625c-17.695,-34.368 -26.542,-74.351 -26.542,-119.948c0,-21.097 2.042,-43.215 6.125,-66.354Zm444.063,2.041c2.722,-17.694 4.083,-30.625 4.083,-38.791c-0,-40.153 -11.74,-71.459 -35.219,-93.917c-23.479,-22.458 -52.913,-33.688 -88.302,-33.688c-26.542,0 -52.233,6.466 -77.073,19.396c-24.84,12.931 -46.448,31.816 -64.823,56.657c-18.375,24.84 -30.625,54.274 -36.75,88.302c-2.041,12.93 -3.062,25.18 -3.062,36.75c-0,40.833 11.569,72.989 34.708,96.468c23.139,23.48 52.403,35.219 87.792,35.219c26.541,0 52.402,-6.635 77.583,-19.906c25.181,-13.271 46.788,-32.497 64.823,-57.677c18.035,-25.181 30.115,-54.785 36.24,-88.813Z" style="fill:#313840;fill-rule:nonzero;"/><path d="M800.729,767c-22.458,-0 -40.493,-6.465 -54.104,-19.396c-13.611,-12.93 -20.417,-29.264 -20.417,-49c0,-27.222 10.379,-50.531 31.136,-69.927c20.757,-19.396 45.087,-29.094 72.989,-29.094c22.459,0 40.323,6.295 53.594,18.886c13.271,12.59 19.906,29.094 19.906,49.51c0,27.222 -10.208,50.531 -30.625,69.927c-20.416,19.396 -44.576,29.094 -72.479,29.094Z" style="fill:#313840;fill-rule:nonzero;"/></g></g></svg>