<?xml version="1.0" encoding="UTF-8" standalone="no"?><!DOCTYPE svg PUBLIC "-//W3C//DTD SVG 1.1//EN" "http://www.w3.org/Graphics/SVG/1.1/DTD/svg11.dtd"><svg width="100%" height="100%" viewBox="0 0 334 334" version="1.1" xmlns="http://www.w3.org/2000/svg" xmlns:xlink="http://www.w3.org/1999/xlink" xml:space="preserve" xmlns:serif="http://www.serif.com/" style="fill-rule:evenodd;clip-rule:evenodd;stroke-linejoin:round;stroke-miterlimit:2;"><rect id="Plan-de-travail1" serif:id="Plan de travail1" x="0" y="0" width="333.333" height="333.333" style="fill:none;"/><g id="Plan-de-travail11" serif:id="Plan de travail1"><path d="M166.667,8.333c-86.859,0 -158.334,71.475 -158.334,158.334c0,86.859 71.475,158.333 158.334,158.333c86.859,0 158.333,-71.474 158.333,-158.333c0,-86.859 -71.474,-158.334 -158.333,-158.334Z" style="fill:#37474f;fill-rule:nonzero;"/><path d="M175.533,176.392l20.075,52.758c4.55,6.175 9.959,11.575 16.409,15.233c20.158,11.442 45.833,4.842 57.341,-14.741c-0.008,-0 -91.525,-51.492 -93.825,-53.25Z" style="fill:#ff7043;fill-rule:nonzero;"/><path d="M175.533,176.392c2.692,1.075 93.825,53.241 93.825,53.241c11.5,-19.591 4.484,-44.741 -15.683,-56.183c-6.45,-3.658 -13.908,-5.558 -21.625,-6.35l-56.517,9.292Z" style="fill:#f16461;fill-rule:nonzero;"/><path d="M245.767,187.875c-2.425,-1.375 -5.042,-2.55 -7.742,-3.625c0.867,8.275 -0.708,16.867 -5.267,24.625c-4.558,7.758 -11.333,13.392 -19.058,16.792c2.3,1.758 4.642,3.4 7.067,4.775c25.258,14.333 41.675,10.95 48.583,-0.8c6.908,-11.759 1.675,-27.434 -23.583,-41.767Z" style="fill:#ff5252;fill-rule:nonzero;"/><path d="M197.2,209.45c4.908,5.917 10.467,11.6 16.508,16.208c7.725,-3.4 14.509,-9.033 19.059,-16.791c4.558,-7.759 6.133,-16.35 5.266,-24.625c-7.083,-2.834 -14.875,-4.725 -22.533,-5.942c0.367,6.175 -1,12.525 -4.375,18.283c-3.392,5.759 -8.3,10.1 -13.925,12.867Z" style="fill:#ff855f;fill-rule:nonzero;"/><path d="M213.708,225.667c-6.041,-4.609 -11.6,-10.3 -16.508,-16.209c-3.508,1.725 -7.3,2.767 -11.192,3.2c2.642,5.692 5.817,11.359 9.609,16.5c6.241,0.142 12.416,-1 18.091,-3.491Z" style="fill:#ff8a65;fill-rule:nonzero;"/><path d="M215.492,178.308c7.666,1.225 15.458,3.109 22.533,5.942c-0.633,-6.083 -2.717,-11.9 -5.975,-17.15c-6.425,-0.658 -13,-0.517 -19.333,0.075c1.558,3.533 2.55,7.283 2.775,11.133Z" style="fill:#ff8a80;fill-rule:nonzero;"/><path d="M211.117,196.583c3.383,-5.758 4.75,-12.1 4.375,-18.283c-20.6,-3.283 -39.959,-1.908 -39.959,-1.908c0,-0 8.467,17.166 21.667,33.058c5.625,-2.767 10.533,-7.108 13.917,-12.867Z" style="fill:#ffccbc;fill-rule:nonzero;"/><path d="M197.2,209.45c-13.2,-15.892 -21.667,-33.058 -21.667,-33.058c-0.483,0.816 -0.658,1.808 -0.45,2.816c1.275,6.184 4.584,19.825 10.917,33.45c3.892,-0.441 7.692,-1.475 11.2,-3.208Z" style="fill:#ffab91;fill-rule:nonzero;"/><path d="M212.717,167.175c-15.175,1.417 -28.842,5.425 -34.925,7.433c-0.992,0.325 -1.775,0.975 -2.25,1.792c-0,0 19.358,-1.375 39.958,1.908c-0.233,-3.85 -1.225,-7.6 -2.783,-11.133Z" style="fill:#ffcdd2;fill-rule:nonzero;"/><g><path d="M157.683,176.392c-2.3,1.758 -93.816,53.241 -93.816,53.241c11.508,19.584 37.175,26.184 57.341,14.742c6.45,-3.658 11.859,-9.058 16.409,-15.233l20.066,-52.75Z" style="fill:#c6cf47;fill-rule:nonzero;"/><path d="M157.683,176.392l-56.516,-9.292c-7.717,0.783 -15.184,2.692 -21.625,6.35c-20.159,11.442 -27.184,36.592 -15.684,56.183c0.009,0 91.134,-52.158 93.825,-53.241Z" style="fill:#e1eb8a;fill-rule:nonzero;"/><path d="M112.45,230.442c2.425,-1.375 4.767,-3.025 7.067,-4.775c-7.725,-3.4 -14.509,-9.034 -19.059,-16.792c-4.558,-7.758 -6.133,-16.35 -5.266,-24.625c-2.692,1.075 -5.317,2.25 -7.742,3.625c-25.258,14.333 -30.483,30 -23.583,41.758c6.908,11.759 23.325,15.142 48.583,0.809Z" style="fill:#dce775;fill-rule:nonzero;"/><path d="M117.725,178.308c-7.667,1.225 -15.458,3.109 -22.533,5.942c-0.867,8.275 0.708,16.867 5.266,24.625c4.559,7.758 11.334,13.392 19.059,16.792c6.041,-4.609 11.6,-10.3 16.508,-16.209c-5.625,-2.775 -10.533,-7.108 -13.917,-12.866c-3.383,-5.767 -4.75,-12.109 -4.383,-18.284Z" style="fill:#fff59d;fill-rule:nonzero;"/><path d="M95.192,184.25c7.083,-2.833 14.875,-4.725 22.533,-5.942c0.233,-3.85 1.217,-7.6 2.775,-11.133c-6.333,-0.592 -12.917,-0.725 -19.333,-0.075c-3.259,5.25 -5.342,11.075 -5.975,17.15Z" style="fill:#e6ee9c;fill-rule:nonzero;"/><path d="M136.025,209.45c-4.908,5.917 -10.467,11.6 -16.508,16.208c5.675,2.5 11.85,3.642 18.1,3.492c3.791,-5.142 6.958,-10.808 9.608,-16.5c-3.9,-0.433 -7.692,-1.467 -11.2,-3.2Z" style="fill:#ffd740;fill-rule:nonzero;"/><path d="M122.108,196.583c3.384,5.759 8.292,10.092 13.917,12.867c13.2,-15.892 21.667,-33.058 21.667,-33.058c-0,-0 -19.359,-1.375 -39.959,1.908c-0.375,6.183 0.992,12.525 4.375,18.283Z" style="fill:#fff9c4;fill-rule:nonzero;"/><path d="M117.725,178.308c20.6,-3.283 39.958,-1.908 39.958,-1.908c-0.483,-0.817 -1.258,-1.467 -2.25,-1.792c-6.091,-2.008 -19.758,-6.008 -34.925,-7.433c-1.566,3.533 -2.55,7.283 -2.783,11.133Z" style="fill:#f0f4c3;fill-rule:nonzero;"/><path d="M147.217,212.65c6.333,-13.625 9.641,-27.258 10.916,-33.45c0.209,-1.008 0.034,-2 -0.45,-2.817c0,0 -8.466,17.167 -21.666,33.059c3.516,1.741 7.308,2.775 11.2,3.208Z" style="fill:#ffe082;fill-rule:nonzero;"/></g><g><path d="M311.417,205.45c-3.425,12.808 -8.459,24.942 -14.95,36.158l14.425,8.325c7.216,-12.466 12.8,-25.933 16.608,-40.175l-16.083,-4.308Z" style="fill:#f44336;fill-rule:nonzero;"/><path d="M60.6,272.733l-11.783,11.784c10.258,10.258 21.941,19.058 34.583,26.375l8.325,-14.425c-11.375,-6.584 -21.892,-14.5 -31.125,-23.734Z" style="fill:#ffd740;fill-rule:nonzero;"/><path d="M16.667,166.667l-16.667,-0c0,14.933 2.15,29.325 5.833,43.1l16.084,-4.309c-3.317,-12.4 -5.25,-25.358 -5.25,-38.791Z" style="fill:#aed581;fill-rule:nonzero;"/><path d="M36.867,241.608l-14.425,8.325c7.316,12.642 16.116,24.317 26.375,34.584l11.783,-11.784c-9.233,-9.233 -17.15,-19.75 -23.733,-31.125Z" style="fill:#fff176;fill-rule:nonzero;"/><path d="M21.917,205.45l-16.084,4.317c3.809,14.233 9.4,27.708 16.609,40.175l14.425,-8.325c-6.492,-11.225 -11.525,-23.35 -14.95,-36.167Z" style="fill:#dce775;fill-rule:nonzero;"/><path d="M91.725,296.467l-8.325,14.425c12.467,7.208 25.933,12.8 40.175,16.608l4.308,-16.083c-12.816,-3.425 -24.941,-8.459 -36.158,-14.95Z" style="fill:#ffca28;fill-rule:nonzero;"/><path d="M241.608,296.467l8.325,14.425c12.642,-7.317 24.325,-16.117 34.584,-26.375l-11.784,-11.784c-9.233,9.234 -19.75,17.15 -31.125,23.734Z" style="fill:#ff7043;fill-rule:nonzero;"/><path d="M205.45,311.417l4.308,16.083c14.234,-3.808 27.709,-9.4 40.175,-16.608l-8.325,-14.425c-11.216,6.491 -23.341,11.525 -36.158,14.95Z" style="fill:#fb8c00;fill-rule:nonzero;"/><path d="M272.733,272.733l11.784,11.784c10.258,-10.259 19.058,-21.942 26.375,-34.584l-14.425,-8.325c-6.584,11.375 -14.5,21.892 -23.734,31.125Z" style="fill:#ff5252;fill-rule:nonzero;"/><path d="M127.883,311.417l-4.308,16.083c13.767,3.683 28.158,5.833 43.092,5.833l-0,-16.666c-13.434,-0 -26.392,-1.934 -38.784,-5.25Z" style="fill:#ffb74d;fill-rule:nonzero;"/><path d="M166.667,316.667l-0,16.666c14.933,0 29.325,-2.15 43.1,-5.833l-4.309,-16.083c-12.4,3.316 -25.358,5.25 -38.791,5.25Z" style="fill:#ffa726;fill-rule:nonzero;"/><path d="M127.883,21.917l-4.316,-16.084c-14.234,3.809 -27.709,9.4 -40.175,16.609l8.325,14.425c11.225,-6.492 23.35,-11.525 36.166,-14.95Z" style="fill:#64b5f6;fill-rule:nonzero;"/><path d="M311.417,127.883l16.083,-4.308c-3.808,-14.233 -9.4,-27.708 -16.608,-40.175l-14.425,8.325c6.491,11.217 11.525,23.342 14.95,36.158Z" style="fill:#9575cd;fill-rule:nonzero;"/><path d="M296.467,91.725l14.425,-8.325c-7.317,-12.642 -16.117,-24.325 -26.375,-34.583l-11.784,11.783c9.234,9.233 17.15,19.75 23.734,31.125Z" style="fill:#7986cb;fill-rule:nonzero;"/><path d="M272.733,60.6l11.784,-11.783c-10.259,-10.259 -21.942,-19.059 -34.584,-26.375l-8.325,14.425c11.375,6.583 21.892,14.5 31.125,23.733Z" style="fill:#8c9eff;fill-rule:nonzero;"/><path d="M241.608,36.867l8.325,-14.425c-12.458,-7.217 -25.933,-12.809 -40.166,-16.609l-4.309,16.084c12.809,3.425 24.934,8.458 36.15,14.95Z" style="fill:#82b1ff;fill-rule:nonzero;"/><path d="M316.667,166.667l16.666,-0c0,-14.934 -2.15,-29.325 -5.833,-43.1l-16.083,4.308c3.316,12.4 5.25,25.358 5.25,38.792Z" style="fill:#f06292;fill-rule:nonzero;"/><path d="M21.917,127.883l-16.084,-4.316c-3.683,13.775 -5.833,28.166 -5.833,43.1l16.667,-0c-0,-13.434 1.933,-26.392 5.25,-38.784Z" style="fill:#9ccc65;fill-rule:nonzero;"/><path d="M311.417,205.45l16.083,4.308c3.683,-13.766 5.833,-28.158 5.833,-43.091l-16.666,-0c-0,13.433 -1.934,26.391 -5.25,38.783Z" style="fill:#ef5350;fill-rule:nonzero;"/><path d="M205.45,21.917l4.308,-16.084c-13.766,-3.683 -28.158,-5.833 -43.091,-5.833l-0,16.667c13.433,-0 26.391,1.933 38.783,5.25Z" style="fill:#64b5f6;fill-rule:nonzero;"/><path d="M60.6,60.6l-11.783,-11.783c-10.259,10.258 -19.059,21.941 -26.375,34.583l14.425,8.325c6.583,-11.375 14.5,-21.892 23.733,-31.125Z" style="fill:#68c1b8;fill-rule:nonzero;"/><path d="M36.867,91.725l-14.425,-8.325c-7.217,12.458 -12.809,25.933 -16.609,40.167l16.084,4.308c3.425,-12.808 8.458,-24.933 14.95,-36.15Z" style="fill:#81c784;fill-rule:nonzero;"/><path d="M91.725,36.867l-8.325,-14.425c-12.642,7.316 -24.325,16.116 -34.583,26.375l11.783,11.783c9.233,-9.233 19.75,-17.15 31.125,-23.733Z" style="fill:#4db6ac;fill-rule:nonzero;"/><path d="M166.667,16.667l-0,-16.667c-14.934,0 -29.325,2.15 -43.1,5.833l4.308,16.084c12.4,-3.317 25.358,-5.25 38.792,-5.25Z" style="fill:#4ba9f5;fill-rule:nonzero;"/></g><g><path d="M166.675,58.333l-0.008,108.334c0.958,-0 1.916,-0.35 2.7,-1.042c9.241,-8.158 38.966,-36.65 38.966,-65.133c0,-23.284 -18.65,-42.15 -41.658,-42.159Z" style="fill:#7986cb;fill-rule:nonzero;"/><path d="M166.667,166.667l-0,-108.334c-23.009,0 -41.667,18.875 -41.667,42.159c0,28.483 29.725,56.975 38.967,65.133c0.783,0.692 1.741,1.042 2.7,1.042Z" style="fill:#26a69a;fill-rule:nonzero;"/><path d="M166.667,58.333c-13.817,0 -25,12.5 -25,41.667c-0,29.917 25,66.667 25,66.667c-0,-0 25,-36.75 25,-66.667c-0,-29.167 -11.192,-41.667 -25,-41.667Z" style="fill:#82b1ff;fill-rule:nonzero;"/><path d="M166.667,58.333c4.525,0 7.841,0.767 8.308,0.875c14.383,3.275 25.025,14.725 25.025,28.292c0,7.583 -3.417,14.5 -8.833,19.667c0.083,-0.584 -22.159,-48.584 -24.5,-48.834Z" style="fill:#4db6ac;fill-rule:nonzero;"/><path d="M181.833,138.833c-7,15.834 -15.166,27.834 -15.166,27.834c-0,-0 -8.167,-12 -15.167,-27.834c4.75,1.834 9.833,2.834 15.167,2.834c5.333,-0 10.416,-1 15.166,-2.834Z" style="fill:#90caf9;fill-rule:nonzero;"/><path d="M142.167,107.167c-5.5,-5.084 -8.834,-12.084 -8.834,-19.667c0,-14.083 11.417,-25.833 26.584,-28.583c1.333,-0.25 5.341,-0.584 6.75,-0.584c-12.584,1.5 -24.834,46.417 -24.5,48.834Z" style="fill:#8dd0ca;fill-rule:nonzero;"/><path d="M191.667,100c-0,1.167 -0,2.417 -0.167,3.583c0,1.167 -0.167,2.417 -0.333,3.584c-6.084,5.833 -14.834,9.5 -24.5,9.5c-9.667,-0 -18.417,-3.667 -24.5,-9.5c-0.334,-2.417 -0.5,-4.834 -0.5,-7.167c-0,-27.333 9.833,-40 22.416,-41.5c0.834,-0.167 1.75,-0.167 2.584,-0.167c0.833,0 1.75,0 2.583,0.167c2.333,0.25 4.667,0.917 6.75,2.083c0.667,0.334 1.333,0.75 2,1.167c0.667,0.417 1.333,0.917 2,1.583c0.583,0.5 1.167,1 1.667,1.584c1.916,2 3.666,4.5 5,7.583c0.416,0.917 0.833,1.833 1.166,2.75c0.417,1 0.75,2 1.084,3.083c0.333,0.917 0.583,1.917 0.75,2.917c0.333,1.333 0.666,2.667 0.833,4.083c0.333,1.584 0.583,3.334 0.75,5.084c0.25,2.916 0.417,6.166 0.417,9.583Z" style="fill:#80cbc4;fill-rule:nonzero;"/><path d="M208.167,103.75c-2.084,27.417 -29.917,54.083 -38.834,61.917c-0.75,0.666 -1.666,1 -2.666,1c-0,-0 8.166,-12 15.166,-27.834c14.334,-5.666 24.834,-19.083 26.334,-35.083Z" style="fill:#9fa8da;fill-rule:nonzero;"/><path d="M166.667,166.667c-1,-0 -1.917,-0.334 -2.667,-1c-8.917,-7.834 -36.75,-34.5 -38.833,-61.917c1.5,16 12,29.417 26.333,35.083c7,15.834 15.167,27.834 15.167,27.834Z" style="fill:#81c784;fill-rule:nonzero;"/></g></g></svg>